<?xml version="1.0" encoding="UTF-8"?>
<svg version="1.1" xmlns="http://www.w3.org/2000/svg" width="512" height="512">
<path d="M0 0 C2.54272904 0.06923836 3.80442666 0.18686131 5.76660156 1.84106445 C9.51611098 6.50663205 12.9319355 11.33203387 16.25 16.3125 C22.42384448 25.45417869 28.89522369 34.34199711 35.48388672 43.1875 C38.41980342 47.13560584 41.3338685 51.09977143 44.25 55.0625 C47.758655 59.82648686 51.26897833 64.5892184 54.78515625 69.34765625 C62.14424472 79.31101158 69.45809754 89.30485025 76.67529297 99.37158203 C78.23615876 101.54324244 79.8071625 103.70729861 81.37890625 105.87109375 C94.87052922 124.5509796 107.07120439 144.52732087 111.25 167.5625 C111.43046875 168.54992187 111.6109375 169.53734375 111.796875 170.5546875 C114.04420068 187.05367337 113.29345069 204.67466415 108.25 220.5625 C107.93651611 221.58126221 107.93651611 221.58126221 107.61669922 222.62060547 C102.97389822 237.31411424 95.2384042 249.88078264 85.25 261.5625 C84.53457031 262.47708984 84.53457031 262.47708984 83.8046875 263.41015625 C79.36610346 268.97740881 73.86349579 273.23076528 68.25 277.5625 C67.07630859 278.47708984 67.07630859 278.47708984 65.87890625 279.41015625 C51.62358351 289.96342215 33.88560803 297.64416439 16.25 299.5625 C15.07308594 299.6965625 13.89617187 299.830625 12.68359375 299.96875 C-3.76933942 301.42975718 -20.02832186 299.61522571 -35.75 294.5625 C-36.67425781 294.28792969 -37.59851563 294.01335937 -38.55078125 293.73046875 C-51.628838 289.48736589 -63.69153044 281.82874129 -73.75 272.5625 C-74.57346924 271.81057373 -74.57346924 271.81057373 -75.41357422 271.04345703 C-97.68737249 250.49011766 -110.21525904 223.88709666 -111.75 193.5625 C-112.71999505 164.40941705 -102.12680398 137.24333311 -85.75 113.5625 C-85.31204102 112.9240918 -84.87408203 112.28568359 -84.42285156 111.62792969 C-77.39855666 101.42113844 -70.00551659 91.50100875 -62.546875 81.609375 C-46.58471065 60.42975142 -31.11624447 38.88122286 -15.95703125 17.12109375 C-15.31950928 16.2069873 -14.6819873 15.29288086 -14.02514648 14.35107422 C-12.77927031 12.56365891 -11.53522624 10.77496489 -10.29321289 8.98486328 C-9.44811157 7.7722583 -9.44811157 7.7722583 -8.5859375 6.53515625 C-8.08626465 5.81593994 -7.5865918 5.09672363 -7.07177734 4.35571289 C-4.71846663 1.16305179 -4.10965226 0.61644784 0 0 Z M45.25 132.5625 C44.27660932 133.59038161 43.30260894 134.61768605 42.328125 135.64453125 C37.46127942 140.8187967 32.72984907 146.10890314 28.08203125 151.48046875 C25.24999277 154.69896877 22.33972052 157.84543411 19.43725586 161.00024414 C16.52195596 164.17047718 13.62609236 167.35653325 10.75 170.5625 C7.40114605 174.29545189 4.02014584 177.99677268 0.625 181.6875 C-5.01732281 187.82850558 -10.61317199 193.98736014 -15.75 200.5625 C-20.36653645 199.70184612 -22.67723353 196.93011907 -25.80078125 193.62890625 C-26.98606178 192.41054812 -28.17161736 191.19245752 -29.35742188 189.97460938 C-31.2116479 188.05218983 -33.0616033 186.12593921 -34.90600586 184.1940918 C-36.69324873 182.32801051 -38.49592064 180.47793043 -40.30078125 178.62890625 C-40.84269608 178.05177383 -41.3846109 177.47464142 -41.94294739 176.88002014 C-45.56837968 173.18539215 -48.48400017 171.43276967 -53.75 170.5625 C-57.40996831 171.66049049 -59.87295048 172.71468546 -62.625 175.375 C-64.76786828 179.54168833 -65.07172629 182.40428535 -63.8125 186.9375 C-61.92068159 190.8679903 -58.97974507 193.57004234 -55.84765625 196.54296875 C-53.92576916 198.39327718 -52.17496398 200.29034313 -50.4375 202.3125 C-47.44320966 205.79327687 -44.36171356 209.18687696 -41.25 212.5625 C-38.079359 216.00314299 -34.9377344 219.4624749 -31.875 223 C-26.35330761 229.77162967 -26.35330761 229.77162967 -18.75 233.5625 C-14.18302972 233.77008956 -11.78924075 232.0321078 -8.4375 229.1875 C-4.21037546 225.22235805 -0.5976226 220.88606599 3 216.3515625 C5.16705575 213.66531631 7.42155031 211.10924185 9.75 208.5625 C12.77282421 205.24260514 15.67512161 201.86485888 18.5 198.375 C23.71518515 191.93538007 29.16331752 185.70794597 34.60351562 179.45898438 C37.68282625 175.91211531 40.73625816 172.34311876 43.7890625 168.7734375 C46.32643191 165.80646057 48.868595 162.84392928 51.421875 159.890625 C54.38284848 156.46325937 57.32256356 153.01853162 60.25 149.5625 C61.00023437 148.68207031 61.75046875 147.80164063 62.5234375 146.89453125 C67.11396986 141.43047647 67.11396986 141.43047647 68.25 134.5625 C66.48455171 130.76678617 64.28427679 127.34090177 60.26953125 125.8046875 C52.92045311 124.58200901 50.0810079 127.31764702 45.25 132.5625 Z " fill="#F93B55" transform="translate(255.75,102.4375)"/>
<path d="M0 0 C4.43040899 4.43040899 2.99396484 14.62453319 3.00488281 20.73095703 C2.79596586 41.64786658 2.79596586 41.64786658 -2 51 C-2.495 51.99 -2.495 51.99 -3 53 C-3.66 53 -4.32 53 -5 53 C-5.18175781 53.95712891 -5.18175781 53.95712891 -5.3671875 54.93359375 C-5.53476562 55.75988281 -5.70234375 56.58617187 -5.875 57.4375 C-6.03742188 58.26121094 -6.19984375 59.08492188 -6.3671875 59.93359375 C-6.57601562 60.61550781 -6.78484375 61.29742187 -7 62 C-7.99 62.495 -7.99 62.495 -9 63 C-9.33 63.99 -9.66 64.98 -10 66 C-11.31200404 67.35432675 -12.64631404 68.68733482 -14 70 C-14.66 70.99 -15.32 71.98 -16 73 C-16.66 73 -17.32 73 -18 73 C-18.0825 73.763125 -18.165 74.52625 -18.25 75.3125 C-19 78 -19 78 -20.875 79.8125 C-23 81 -23 81 -26 81 C-26.495 82.485 -26.495 82.485 -27 84 C-28.70703125 85.3515625 -28.70703125 85.3515625 -30.8125 86.625 C-31.49957031 87.05039062 -32.18664062 87.47578125 -32.89453125 87.9140625 C-35 89 -35 89 -37.19921875 89.5234375 C-37.79347656 89.68070312 -38.38773437 89.83796875 -39 90 C-39.33 90.66 -39.66 91.32 -40 92 C-40.99 92 -41.98 92 -43 92 C-43.33 92.66 -43.66 93.32 -44 94 C-46.58203125 94.5625 -46.58203125 94.5625 -49.8125 95 C-53.679369 95.52751441 -56.55581189 96.20693027 -60 98 C-63.74161103 98 -67.28953557 97.48661829 -71 97 C-67.84212051 95.14682335 -64.60046487 94.35543858 -61.06103516 93.50537109 C-41.80919688 88.77477994 -24.86595786 77.89949744 -14 61 C-4.47837205 44.65415444 -1.97480599 27.58073049 -1.34106445 8.98242188 C-1.30972412 8.10779297 -1.27838379 7.23316406 -1.24609375 6.33203125 C-1.21020142 5.15217651 -1.21020142 5.15217651 -1.17358398 3.94848633 C-1 2 -1 2 0 0 Z " fill="#8F908F" transform="translate(446,346)"/>
<path d="M0 0 C0.6290625 0.13277344 1.258125 0.26554687 1.90625 0.40234375 C7.26258811 1.50749182 12.56437906 2.39604212 18 3 C18 3.66 18 4.32 18 5 C20.64 5.33 23.28 5.66 26 6 C26 6.99 26 7.98 26 9 C26.598125 9.144375 27.19625 9.28875 27.8125 9.4375 C32.59760635 10.66795592 34.52891374 12.52891374 38 16 C40.16620544 17.29519995 40.16620544 17.29519995 42 18 C42 18.99 42 19.98 42 21 C42.66 21 43.32 21 44 21 C44 21.66 44 22.32 44 23 C44.66 23 45.32 23 46 23 C46 23.99 46 24.98 46 26 C46.99 26 47.98 26 49 26 C49.680625 27.4540625 49.680625 27.4540625 50.375 28.9375 C51.65786221 32.07079582 51.65786221 32.07079582 54 33 C54 34.32 54 35.64 54 37 C54.99 37.33 55.98 37.66 57 38 C57.73046875 40.06640625 57.73046875 40.06640625 58.1875 42.5625 C58.42533203 43.80193359 58.42533203 43.80193359 58.66796875 45.06640625 C58.77753906 45.70449219 58.88710938 46.34257813 59 47 C59.66 47 60.32 47 61 47 C61.33634376 48.93697967 61.66897165 50.87460486 62 52.8125 C62.185625 53.89144531 62.37125 54.97039062 62.5625 56.08203125 C63 59 63 59 63 62 C63.66 62.66 64.32 63.32 65 64 C65 64.66 65 65.32 65 66 C65.33 66.99 65.66 67.98 66 69 C66.26110623 73.51674218 66.23139444 78.03902438 66.25 82.5625 C66.270625 83.81998047 66.29125 85.07746094 66.3125 86.37304688 C66.32023437 88.17032227 66.32023437 88.17032227 66.328125 90.00390625 C66.3374707 91.10549072 66.34681641 92.2070752 66.35644531 93.34204102 C66.23881836 94.21916748 66.12119141 95.09629395 66 96 C65.01 96.66 64.02 97.32 63 98 C63.020625 97.278125 63.04125 96.55625 63.0625 95.8125 C63.09032614 93.06405055 63.09032614 93.06405055 62.5 90.6875 C62 88 62 88 62.0390625 84.38671875 C62.15572296 61.03606631 53.55626799 38.30141632 37.6875 21.3125 C33.60455056 17.37472209 28.96859915 14.68304354 24 12 C23.03578125 11.47148438 22.0715625 10.94296875 21.078125 10.3984375 C15.17460827 7.29373828 9.61754686 5.11270299 3.08203125 3.73828125 C2.39496094 3.49464844 1.70789063 3.25101562 1 3 C0.67 2.01 0.34 1.02 0 0 Z " fill="#939393" transform="translate(382,67)"/>
<path d="M0 0 C0.66 0 1.32 0 2 0 C2.66 4.95 3.32 9.9 4 15 C4.33 15 4.66 15 5 15 C5.08636719 15.63164062 5.17273438 16.26328125 5.26171875 16.9140625 C7.48271215 31.05506634 12.78365455 42.48533667 21 54 C21.73863281 55.04800781 21.73863281 55.04800781 22.4921875 56.1171875 C34.65103809 71.72943944 53.77969474 77.22216278 72 82 C72 82.66 72 83.32 72 84 C69 84 66 84 63 84 C62.67 83.34 62.34 82.68 62 82 C61.01 82 60.02 82 59 82 C58.67 82.66 58.34 83.32 58 84 C57.67 83.34 57.34 82.68 57 82 C54.42562419 81.08719862 54.42562419 81.08719862 51.4375 80.375 C49.91962891 79.98441406 49.91962891 79.98441406 48.37109375 79.5859375 C47.58863281 79.39257812 46.80617187 79.19921875 46 79 C46 78.34 46 77.68 46 77 C44.2365625 76.9071875 44.2365625 76.9071875 42.4375 76.8125 C37.48827061 76.21259341 34.75755133 74.2095751 31 71 C31 70.34 31 69.68 31 69 C29.824375 68.5359375 29.824375 68.5359375 28.625 68.0625 C26 67 26 67 24 66 C24 65.34 24 64.68 24 64 C23.34 64 22.68 64 22 64 C22 63.34 22 62.68 22 62 C21.34 61.67 20.68 61.34 20 61 C18.9935725 59.33720673 17.99414593 57.67016516 17 56 C16.02149805 54.97895449 15.02019573 53.9793879 14 53 C11.05284411 49.70611989 9.50606864 47.42810056 9 43 C8.34 43 7.68 43 7 43 C6.28385417 41.046875 5.56770833 39.09375 4.8515625 37.140625 C4.07203251 35.01851023 4.07203251 35.01851023 2.97265625 33.26953125 C1.47571692 29.7766728 1.22138724 26.19355719 0.8125 22.4375 C0.71775391 21.66986328 0.62300781 20.90222656 0.52539062 20.11132812 C0.13606666 16.70251452 -0.09763664 14.29290992 1 11 C0.34 11 -0.32 11 -1 11 C-0.73958333 9.01432292 -0.47916667 7.02864583 -0.21875 5.04296875 C0.053233 2.84528294 0.053233 2.84528294 0 0 Z " fill="#8D8E8E" transform="translate(64,360)"/>
<path d="M0 0 C0.495 0.99 0.495 0.99 1 2 C1.556875 1.67 2.11375 1.34 2.6875 1 C5.30284522 -0.1309601 7.1806646 -0.15662974 10 0 C8.43917023 3.12165955 5.31255892 3.49607199 2.1875 4.625 C-5.27144394 7.4581316 -11.57833415 11.23618256 -18 16 C-18.59167969 16.41894531 -19.18335938 16.83789062 -19.79296875 17.26953125 C-29.17778762 24.38991661 -34.31827095 34.80033661 -39.16308594 45.20410156 C-39.86659527 46.71373243 -40.59105058 48.21357723 -41.3203125 49.7109375 C-43.37407282 54.04665373 -44.63787918 58.20840297 -45.5625 62.9140625 C-46.14522766 65.69242474 -47.0419256 68.33107846 -48 71 C-49.32 70.34 -50.64 69.68 -52 69 C-51.01 68.505 -51.01 68.505 -50 68 C-50.2784375 67.0409375 -50.2784375 67.0409375 -50.5625 66.0625 C-50.706875 65.381875 -50.85125 64.70125 -51 64 C-50.505 63.505 -50.505 63.505 -50 63 C-49.75473268 60.84255602 -49.61682205 58.68617221 -49.4765625 56.51953125 C-48.87102254 53.31811097 -47.50275787 50.88659246 -46 48 C-45.07767398 45.71886691 -44.18159917 43.42693834 -43.3125 41.125 C-42.87550781 39.97257812 -42.43851563 38.82015625 -41.98828125 37.6328125 C-41.66214844 36.76398438 -41.33601563 35.89515625 -41 35 C-40.34 35 -39.68 35 -39 35 C-38.88269531 34.4225 -38.76539062 33.845 -38.64453125 33.25 C-37.09429641 27.83827109 -33.30898674 22.56605799 -29 19 C-28.34 19 -27.68 19 -27 19 C-26.814375 18.443125 -26.62875 17.88625 -26.4375 17.3125 C-24.63184665 14.4077533 -22.473274 13.02247465 -19.65625 11.1484375 C-17.85013639 9.96891091 -17.85013639 9.96891091 -16 8 C-13.85877156 6.88712469 -11.6875697 5.83126863 -9.5 4.8125 C-8.3346875 4.26207031 -7.169375 3.71164063 -5.96875 3.14453125 C-4.9890625 2.76683594 -4.009375 2.38914062 -3 2 C-2.34 2.33 -1.68 2.66 -1 3 C-0.67 2.01 -0.34 1.02 0 0 Z " fill="#919191" transform="translate(115,69)"/>
<path d="M0 0 C0.66 0.33 1.32 0.66 2 1 C1.51219512 6.48780488 1.51219512 6.48780488 -0.875 8.875 C-3 10 -3 10 -6 10 C-6.33 10.99 -6.66 11.98 -7 13 C-8.70703125 14.3515625 -8.70703125 14.3515625 -10.8125 15.625 C-11.49957031 16.05039062 -12.18664062 16.47578125 -12.89453125 16.9140625 C-15 18 -15 18 -17.19921875 18.5234375 C-17.79347656 18.68070312 -18.38773437 18.83796875 -19 19 C-19.33 19.66 -19.66 20.32 -20 21 C-20.99 21 -21.98 21 -23 21 C-23.33 21.66 -23.66 22.32 -24 23 C-26.58203125 23.5625 -26.58203125 23.5625 -29.8125 24 C-33.679369 24.52751441 -36.55581189 25.20693027 -40 27 C-43.74161103 27 -47.28953557 26.48661829 -51 26 C-47.84172677 24.14659229 -44.5992553 23.35573024 -41.05981445 22.50415039 C-29.17584647 19.58874085 -17.96216598 14.75896346 -8.8125 6.4375 C-6 4 -6 4 -3.0625 3.625 C-2.381875 3.74875 -1.70125 3.8725 -1 4 C-0.67 2.68 -0.34 1.36 0 0 Z " fill="#848484" transform="translate(426,417)"/>
<path d="M0 0 C0.66 0 1.32 0 2 0 C2.66 4.95 3.32 9.9 4 15 C4.33 15 4.66 15 5 15 C5.08636719 15.63164062 5.17273438 16.26328125 5.26171875 16.9140625 C7.05173551 28.31104996 10.69854911 38.36248688 17 48 C16.67 48.66 16.34 49.32 16 50 C14.35 50 12.7 50 11 50 C10.01 46.535 10.01 46.535 9 43 C8.34 43 7.68 43 7 43 C6.28385417 41.046875 5.56770833 39.09375 4.8515625 37.140625 C4.07203251 35.01851023 4.07203251 35.01851023 2.97265625 33.26953125 C1.47571692 29.7766728 1.22138724 26.19355719 0.8125 22.4375 C0.71775391 21.66986328 0.62300781 20.90222656 0.52539062 20.11132812 C0.13606666 16.70251452 -0.09763664 14.29290992 1 11 C0.34 11 -0.32 11 -1 11 C-0.73958333 9.01432292 -0.47916667 7.02864583 -0.21875 5.04296875 C0.053233 2.84528294 0.053233 2.84528294 0 0 Z " fill="#9E9E9D" transform="translate(64,360)"/>
<path d="M0 0 C0.495 0.99 0.495 0.99 1 2 C1.556875 1.67 2.11375 1.34 2.6875 1 C5.30284522 -0.1309601 7.1806646 -0.15662974 10 0 C8.43917023 3.12165955 5.31255892 3.49607199 2.1875 4.625 C-8.47343265 8.67434336 -17.92551726 14.92551726 -26 23 C-26.66 23 -27.32 23 -28 23 C-28.33 23.66 -28.66 24.32 -29 25 C-30.32 25 -31.64 25 -33 25 C-33 23 -33 23 -31.125 20.875 C-29 19 -29 19 -27 19 C-26.814375 18.443125 -26.62875 17.88625 -26.4375 17.3125 C-24.63184665 14.4077533 -22.473274 13.02247465 -19.65625 11.1484375 C-17.85013639 9.96891091 -17.85013639 9.96891091 -16 8 C-13.85877156 6.88712469 -11.6875697 5.83126863 -9.5 4.8125 C-8.3346875 4.26207031 -7.169375 3.71164063 -5.96875 3.14453125 C-4.9890625 2.76683594 -4.009375 2.38914062 -3 2 C-2.34 2.33 -1.68 2.66 -1 3 C-0.67 2.01 -0.34 1.02 0 0 Z " fill="#989898" transform="translate(115,69)"/>
<path d="M0 0 C0.6290625 0.13277344 1.258125 0.26554687 1.90625 0.40234375 C7.26258811 1.50749182 12.56437906 2.39604212 18 3 C18 3.66 18 4.32 18 5 C20.64 5.33 23.28 5.66 26 6 C26 6.99 26 7.98 26 9 C26.598125 9.144375 27.19625 9.28875 27.8125 9.4375 C31.39872368 10.3596718 33.65068554 11.09132496 36 14 C36 14.99 36 15.98 36 17 C31.50078939 16.43654746 28.22374054 14.52471155 24.4375 12.1875 C19.00174469 8.94608049 13.71737456 6.59849952 7.62109375 4.7890625 C5.00715488 4.00215393 2.51925539 3.04779157 0 2 C0 1.34 0 0.68 0 0 Z " fill="#939494" transform="translate(382,67)"/>
<path d="M0 0 C0.66 0.33 1.32 0.66 2 1 C1.51219512 6.48780488 1.51219512 6.48780488 -0.875 8.875 C-3 10 -3 10 -6 10 C-6.33 10.99 -6.66 11.98 -7 13 C-9.06640625 14.38671875 -9.06640625 14.38671875 -11.5625 15.6875 C-12.80193359 16.34298828 -12.80193359 16.34298828 -14.06640625 17.01171875 C-15.02353516 17.50091797 -15.02353516 17.50091797 -16 18 C-16.66 16.35 -17.32 14.7 -18 13 C-17.21753906 12.43410156 -16.43507813 11.86820312 -15.62890625 11.28515625 C-14.61699219 10.55167969 -13.60507812 9.81820313 -12.5625 9.0625 C-11.55316406 8.33160156 -10.54382813 7.60070312 -9.50390625 6.84765625 C-7.17707392 5.22678115 -7.17707392 5.22678115 -6 4 C-4.33382885 3.95936168 -2.66611905 3.957279 -1 4 C-0.67 2.68 -0.34 1.36 0 0 Z " fill="#909090" transform="translate(426,417)"/>
<path d="M0 0 C0.08674429 4.45821166 0.14030513 8.91620804 0.1875 13.375 C0.21263672 14.64601562 0.23777344 15.91703125 0.26367188 17.2265625 C0.27333984 18.43828125 0.28300781 19.65 0.29296875 20.8984375 C0.3086792 22.01911621 0.32438965 23.13979492 0.34057617 24.29443359 C0.22818604 25.18727051 0.1157959 26.08010742 0 27 C-0.99 27.66 -1.98 28.32 -3 29 C-2.979375 28.278125 -2.95875 27.55625 -2.9375 26.8125 C-2.90967386 24.06405055 -2.90967386 24.06405055 -3.5 21.6875 C-4.04223171 18.77300456 -4.01839229 16.01117385 -3.95703125 13.0546875 C-3.95151887 10.7016299 -3.95151887 10.7016299 -4.6875 7.25 C-5 4 -5 4 -3.6875 1.5625 C-2 0 -2 0 0 0 Z " fill="#878787" transform="translate(448,136)"/>
<path d="M0 0 C0.66 0 1.32 0 2 0 C2.66 4.95 3.32 9.9 4 15 C4.33 15 4.66 15 5 15 C5.66 19.62 6.32 24.24 7 29 C5.35 28.67 3.7 28.34 2 28 C1.63601378 25.91835982 1.28416713 23.83459438 0.9375 21.75 C0.74027344 20.58984375 0.54304688 19.4296875 0.33984375 18.234375 C0.0393784 15.37477376 0.0560794 13.66674071 1 11 C0.34 11 -0.32 11 -1 11 C-0.73958333 9.01432292 -0.47916667 7.02864583 -0.21875 5.04296875 C0.053233 2.84528294 0.053233 2.84528294 0 0 Z " fill="#818181" transform="translate(64,360)"/>
<path d="M0 0 C0.33 0.66 0.66 1.32 1 2 C1.556875 1.67 2.11375 1.34 2.6875 1 C5.30284522 -0.1309601 7.1806646 -0.15662974 10 0 C8.38814482 3.22371036 4.97167112 3.73316532 1.75 4.9375 C-1.96090364 6.33534521 -5.42755786 7.64491072 -8.80859375 9.7421875 C-9.53175781 10.15726563 -10.25492187 10.57234375 -11 11 C-13.8125 10.1875 -13.8125 10.1875 -16 9 C-13.35787411 7.23858274 -10.7572236 5.76181302 -7.9375 4.3125 C-6.62072266 3.62607422 -6.62072266 3.62607422 -5.27734375 2.92578125 C-4.52582031 2.62027344 -3.77429688 2.31476563 -3 2 C-2.34 2.33 -1.68 2.66 -1 3 C-0.67 2.01 -0.34 1.02 0 0 Z " fill="#949494" transform="translate(115,69)"/>
<path d="M0 0 C3.79261056 0.97553531 7.58391843 1.95604109 11.375 2.9375 C12.99535156 3.35418945 12.99535156 3.35418945 14.6484375 3.77929688 C15.6796875 4.04677734 16.7109375 4.31425781 17.7734375 4.58984375 C18.72653809 4.83597412 19.67963867 5.08210449 20.66162109 5.33569336 C23 6 23 6 25 7 C25 7.66 25 8.32 25 9 C22 9 19 9 16 9 C15.67 8.34 15.34 7.68 15 7 C14.01 7 13.02 7 12 7 C11.67 7.66 11.34 8.32 11 9 C10.67 8.34 10.34 7.68 10 7 C7.7039415 6.19637952 5.38359133 5.59442431 3.03125 4.9765625 C2.3609375 4.65429688 1.690625 4.33203125 1 4 C0.37304688 1.93896484 0.37304688 1.93896484 0 0 Z " fill="#8D8D8D" transform="translate(111,435)"/>
<path d="M0 0 C0.33 0.66 0.66 1.32 1 2 C0.34 2 -0.32 2 -1 2 C-1.33 2.99 -1.66 3.98 -2 5 C-5.45689963 6.21631654 -8.32831864 7 -12 7 C-13.155 7.20625 -14.31 7.4125 -15.5 7.625 C-19 8 -19 8 -22 6 C-21.44014404 5.85377197 -20.88028809 5.70754395 -20.3034668 5.55688477 C-17.76453929 4.89312491 -15.22601658 4.22782962 -12.6875 3.5625 C-11.80642578 3.33240234 -10.92535156 3.10230469 -10.01757812 2.86523438 C-9.17001953 2.64287109 -8.32246094 2.42050781 -7.44921875 2.19140625 C-6.27879028 1.88505249 -6.27879028 1.88505249 -5.0847168 1.57250977 C-3.37394724 1.10269426 -1.6830666 0.5610222 0 0 Z " fill="#8D8D8D" transform="translate(397,436)"/>
<path d="M0 0 C0.33 0 0.66 0 1 0 C1 1.65 1 3.3 1 5 C1.66 5 2.32 5 3 5 C2.45144652 9.571279 1.58255197 13.67435795 0 18 C-1.32 17.34 -2.64 16.68 -4 16 C-3.34 15.67 -2.68 15.34 -2 15 C-2.185625 14.360625 -2.37125 13.72125 -2.5625 13.0625 C-2.706875 12.381875 -2.85125 11.70125 -3 11 C-2.67 10.67 -2.34 10.34 -2 10 C-1.79300437 8.50503158 -1.63320741 7.0033408 -1.5 5.5 C-1.11111111 1.11111111 -1.11111111 1.11111111 0 0 Z " fill="#A8A8A8" transform="translate(67,122)"/>
<path d="M0 0 C-1.65 3.63 -3.3 7.26 -5 11 C-5.66 11 -6.32 11 -7 11 C-8.01018369 6.65621014 -8.25218057 3.941316 -6 0 C-3 -1 -3 -1 0 0 Z " fill="#848484" transform="translate(75,116)"/>
<path d="M0 0 C1.98 0.99 3.96 1.98 6 3 C6 3.99 6 4.98 6 6 C6.66 6 7.32 6 8 6 C7.34 7.32 6.68 8.64 6 10 C4.85073734 9.04578192 3.70569459 8.08647955 2.5625 7.125 C1.92441406 6.59132813 1.28632813 6.05765625 0.62890625 5.5078125 C-1 4 -1 4 -2 2 C-1.34 2 -0.68 2 0 2 C0 1.34 0 0.68 0 0 Z " fill="#A7A7A7" transform="translate(418,82)"/>
<path d="M0 0 C0.66 1.32 1.32 2.64 2 4 C-0.97 5.65 -3.94 7.3 -7 9 C-7.66 7.35 -8.32 5.7 -9 4 C-7.6078125 3.8453125 -7.6078125 3.8453125 -6.1875 3.6875 C-2.96745642 2.9929808 -1.97420135 2.52259061 0 0 Z " fill="#959595" transform="translate(417,426)"/>
<path d="M0 0 C1.88391785 3.26545761 2.49287967 6.28111761 3 10 C1.35 9.67 -0.3 9.34 -2 9 C-2.6875 7.3125 -2.6875 7.3125 -3 5 C-1.5625 2.25 -1.5625 2.25 0 0 Z " fill="#9A9A9A" transform="translate(68,379)"/>
<path d="M0 0 C1.32 0.33 2.64 0.66 4 1 C4 1.99 4 2.98 4 4 C4.99 4 5.98 4 7 4 C7.33 5.32 7.66 6.64 8 8 C5.6875 8.25 5.6875 8.25 3 8 C1.1875 6.25 1.1875 6.25 0 4 C0 2.68 0 1.36 0 0 Z " fill="#8D8D8D" transform="translate(424,89)"/>
<path d="M0 0 C1.32 0.66 2.64 1.32 4 2 C3.34 4.64 2.68 7.28 2 10 C1.34 9.67 0.68 9.34 0 9 C0 8.34 0 7.68 0 7 C-0.66 6.67 -1.32 6.34 -2 6 C-1.49396008 3.83125748 -1.00016187 2.00032373 0 0 Z " fill="#9B9B9B" transform="translate(437,398)"/>
<path d="M0 0 C2.4375 0.75 2.4375 0.75 5 2 C5.8125 4.125 5.8125 4.125 6 6 C4.125 7.0625 4.125 7.0625 2 8 C1.34 7.67 0.68 7.34 0 7 C-1.26229508 2.52459016 -1.26229508 2.52459016 0 0 Z " fill="#868686" transform="translate(67,388)"/>
<path d="M0 0 C5.94 1.485 5.94 1.485 12 3 C12 3.66 12 4.32 12 5 C9 5 6 5 3 5 C2.67 4.34 2.34 3.68 2 3 C1.34 3 0.68 3 0 3 C0 2.01 0 1.02 0 0 Z " fill="#716868" transform="translate(124,439)"/>
<path d="M0 0 C0.99 0.33 1.98 0.66 3 1 C2.67 2.65 2.34 4.3 2 6 C1.01 6 0.02 6 -1 6 C-1.33 6.66 -1.66 7.32 -2 8 C-3.32 8 -4.64 8 -6 8 C-6 6 -6 6 -4.125 3.875 C-2 2 -2 2 0 2 C0 1.34 0 0.68 0 0 Z " fill="#6F6F6F" transform="translate(88,86)"/>
<path d="M0 0 C0.67546875 0.144375 1.3509375 0.28875 2.046875 0.4375 C2.93890625 0.623125 3.8309375 0.80875 4.75 1 C5.63171875 1.185625 6.5134375 1.37125 7.421875 1.5625 C10.22143965 2.11153675 10.22143965 2.11153675 14 2 C14 2.99 14 3.98 14 5 C8.57960425 5.40652968 4.92984325 4.03993514 0 2 C0 1.34 0 0.68 0 0 Z " fill="#818181" transform="translate(382,67)"/>
<path d="M0 0 C0 2.31 0 4.62 0 7 C-0.66 7 -1.32 7 -2 7 C-2.33 7.66 -2.66 8.32 -3 9 C-4.1875 6.75 -4.1875 6.75 -5 4 C-2.83783784 0 -2.83783784 0 0 0 Z " fill="#B4B4B4" transform="translate(448,136)"/>
<path d="M0 0 C0.66 0 1.32 0 2 0 C2 0.66 2 1.32 2 2 C2.66 2 3.32 2 4 2 C3.67 3.65 3.34 5.3 3 7 C1.35 7.33 -0.3 7.66 -2 8 C-1.34 5.36 -0.68 2.72 0 0 Z " fill="#9C9C9C" transform="translate(72,108)"/>
<path d="M0 0 C3.23490776 0.55774272 4.97855006 1.37211508 7 4 C7 4.99 7 5.98 7 7 C2.25 6.25 2.25 6.25 0 4 C0 2.68 0 1.36 0 0 Z " fill="#878787" transform="translate(411,77)"/>
<path d="M0 0 C0.66 0.33 1.32 0.66 2 1 C1.67 3.31 1.34 5.62 1 8 C0.01 7.67 -0.98 7.34 -2 7 C-2.875 5.125 -2.875 5.125 -3 3 C-1.5625 1.25 -1.5625 1.25 0 0 Z " fill="#8E8E8E" transform="translate(76,103)"/>
<path d="M0 0 C0.66 0.33 1.32 0.66 2 1 C1.8125 3.8125 1.8125 3.8125 1 7 C-1.5625 8.875 -1.5625 8.875 -4 10 C-3.67 8.02 -3.34 6.04 -3 4 C-2.34 4 -1.68 4 -1 4 C-0.67 2.68 -0.34 1.36 0 0 Z " fill="#AFAFAF" transform="translate(426,417)"/>
<path d="M0 0 C0.66 0.33 1.32 0.66 2 1 C2.95067299 4.28414305 3.10102197 5.69693408 2 9 C1.01 8.67 0.02 8.34 -1 8 C-1.125 2.25 -1.125 2.25 0 0 Z " fill="#818181" transform="translate(434,403)"/>
<path d="M0 0 C0.66 0 1.32 0 2 0 C2 4.29 2 8.58 2 13 C1.01 13.495 1.01 13.495 0 14 C0 9.38 0 4.76 0 0 Z " fill="#AEAEAE" transform="translate(64,140)"/>
<path d="M0 0 C1.32 0.33 2.64 0.66 4 1 C4 2.66666667 4 4.33333333 4 6 C2 7.6875 2 7.6875 0 9 C0 6.03 0 3.06 0 0 Z " fill="#757575" transform="translate(443,130)"/>
<path d="M0 0 C-0.33 1.65 -0.66 3.3 -1 5 C-2.8125 5.6875 -2.8125 5.6875 -5 6 C-6.75 4.5625 -6.75 4.5625 -8 3 C-2.25 0 -2.25 0 0 0 Z " fill="#ABB0AE" transform="translate(107,74)"/>
<path d="M0 0 C1.32 1.65 2.64 3.3 4 5 C3.67 5.66 3.34 6.32 3 7 C1.35 7 -0.3 7 -2 7 C-2.33 5.68 -2.66 4.36 -3 3 C-2.01 3 -1.02 3 0 3 C0 2.01 0 1.02 0 0 Z " fill="#B0B0B0" transform="translate(77,403)"/>
<path d="M0 0 C0.33 0.66 0.66 1.32 1 2 C0.34 2 -0.32 2 -1 2 C-1.33 2.99 -1.66 3.98 -2 5 C-4.0625 5.6875 -4.0625 5.6875 -6 6 C-6.33 4.68 -6.66 3.36 -7 2 C-4.69 1.34 -2.38 0.68 0 0 Z " fill="#A9A9AD" transform="translate(397,436)"/>
<path d="M0 0 C2.4375 0.6875 2.4375 0.6875 5 2 C5.8125 4.625 5.8125 4.625 6 7 C5.34 7 4.68 7 4 7 C4 6.34 4 5.68 4 5 C2.35 4.67 0.7 4.34 -1 4 C-0.67 2.68 -0.34 1.36 0 0 Z " fill="#7A7A7A" transform="translate(106,432)"/>
<path d="M0 0 C0.33 1.32 0.66 2.64 1 4 C-0.21484375 5.703125 -0.21484375 5.703125 -1.9375 7.25 C-2.50339844 7.77078125 -3.06929688 8.2915625 -3.65234375 8.828125 C-4.09707031 9.21484375 -4.54179687 9.6015625 -5 10 C-5.66 9.67 -6.32 9.34 -7 9 C-4.69 6.03 -2.38 3.06 0 0 Z " fill="#FB2C3E" transform="translate(323,242)"/>
<path d="M0 0 C0 1.65 0 3.3 0 5 C-1.98 4.01 -3.96 3.02 -6 2 C-6 1.34 -6 0.68 -6 0 C-3.50907189 -1.24546405 -2.58919267 -0.7767578 0 0 Z " fill="#9F9F9F" transform="translate(411,76)"/>
<path d="M0 0 C0.99 0.66 1.98 1.32 3 2 C2.67 3.65 2.34 5.3 2 7 C1.67 6.34 1.34 5.68 1 5 C0.01 4.67 -0.98 4.34 -2 4 C-2 3.01 -2 2.02 -2 1 C-1.34 0.67 -0.68 0.34 0 0 Z " fill="#AFAFAF" transform="translate(94,424)"/>
<path d="M0 0 C0.66 0 1.32 0 2 0 C2.33 2.97 2.66 5.94 3 9 C1.68 9.33 0.36 9.66 -1 10 C-0.835 8.906875 -0.67 7.81375 -0.5 6.6875 C0.06718184 3.12474127 0.06718184 3.12474127 0 0 Z " fill="#C6C6C6" transform="translate(64,360)"/>
<path d="M0 0 C0.33 0 0.66 0 1 0 C1 1.65 1 3.3 1 5 C1.66 5 2.32 5 3 5 C2.34 6.32 1.68 7.64 1 9 C0.34 8.67 -0.32 8.34 -1 8 C-1.04241723 5.66705225 -1.04092937 3.33297433 -1 1 C-0.67 0.67 -0.34 0.34 0 0 Z " fill="#C8C8C8" transform="translate(67,122)"/>
<path d="M0 0 C1.32 0.66 2.64 1.32 4 2 C4 2.66 4 3.32 4 4 C3.34 4 2.68 4 2 4 C1.67 4.99 1.34 5.98 1 7 C-0.0625 4.625 -0.0625 4.625 -1 2 C-0.67 1.34 -0.34 0.68 0 0 Z " fill="#7E7E7E" transform="translate(90,421)"/>
<path d="M0 0 C0.33 0.99 0.66 1.98 1 3 C1.66 3.33 2.32 3.66 3 4 C1.625 5.5 1.625 5.5 0 7 C-0.66 7 -1.32 7 -2 7 C-1.125 1.125 -1.125 1.125 0 0 Z " fill="#ACACAD" transform="translate(432,407)"/>
<path d="M0 0 C0.66 0.33 1.32 0.66 2 1 C2 2.65 2 4.3 2 6 C0.68 5.67 -0.64 5.34 -2 5 C-1.125 1.125 -1.125 1.125 0 0 Z " fill="#8C8C8C" transform="translate(75,400)"/>
<path d="M0 0 C2.9375 0.8125 2.9375 0.8125 6 2 C6.33 2.99 6.66 3.98 7 5 C4 5 4 5 1 4 C0.3125 1.9375 0.3125 1.9375 0 0 Z " fill="#B3B3B3" transform="translate(433,104)"/>
<path d="M0 0 C0.66 0 1.32 0 2 0 C0.95125002 2.62187494 0.35068687 3.79371361 -2.125 5.25 C-2.74375 5.4975 -3.3625 5.745 -4 6 C-4.66 5.01 -5.32 4.02 -6 3 C-4.35 3 -2.7 3 -1 3 C-0.67 2.01 -0.34 1.02 0 0 Z " fill="#A7A6A7" transform="translate(87,91)"/>
<path d="M0 0 C0 0.99 0 1.98 0 3 C-4.19589427 4.16552619 -4.82091936 4.08954032 -9 2 C-6.03 1.34 -3.06 0.68 0 0 Z " fill="#B8B8B8" transform="translate(384,440)"/>
<path d="M0 0 C2 2 2 2 2.125 5.625 C2.08375 6.73875 2.0425 7.8525 2 9 C1.01 8.34 0.02 7.68 -1 7 C-0.67 4.69 -0.34 2.38 0 0 Z " fill="#A7A7A7" transform="translate(446,346)"/>
<path d="M0 0 C2.4375 0.375 2.4375 0.375 5 1 C5.33 1.66 5.66 2.32 6 3 C4.35 3.66 2.7 4.32 1 5 C0.67 3.35 0.34 1.7 0 0 Z " fill="#787878" transform="translate(97,78)"/>
<path d="M0 0 C1.98 0 3.96 0 6 0 C6 0.66 6 1.32 6 2 C4.02 2.99 2.04 3.98 0 5 C0 3.35 0 1.7 0 0 Z " fill="#838383" transform="translate(107,73)"/>
<path d="M0 0 C-0.33 1.65 -0.66 3.3 -1 5 C-3.46800047 3.84826645 -5.04783565 2.95216435 -7 1 C-4 0 -4 0 0 0 Z " fill="#A8A8A8" transform="translate(124,439)"/>
<path d="M0 0 C0 0.99 0 1.98 0 3 C-1.32 3.33 -2.64 3.66 -4 4 C-4.66 3.01 -5.32 2.02 -6 1 C-4 0 -4 0 0 0 Z " fill="#A3A3A3" transform="translate(106,432)"/>
<path d="M0 0 C0.66 1.32 1.32 2.64 2 4 C0.02 4.99 0.02 4.99 -2 6 C-2.99 5.34 -3.98 4.68 -5 4 C-3.35 2.68 -1.7 1.36 0 0 Z " fill="#B1B1B1" transform="translate(417,426)"/>
<path d="M0 0 C0.66 0 1.32 0 2 0 C2 0.66 2 1.32 2 2 C2.99 1.67 3.98 1.34 5 1 C5.33 2.32 5.66 3.64 6 5 C4.35 4.67 2.7 4.34 1 4 C0.67 2.68 0.34 1.36 0 0 Z " fill="#B3B3B3" transform="translate(65,384)"/>
<path d="M0 0 C0 3.93169105 -1.39419615 5.16427228 -4 8 C-4.66 8 -5.32 8 -6 8 C-4.55746343 4.63408134 -2.66735273 2.48952921 0 0 Z " fill="#FC2C39" transform="translate(269,306)"/>
<path d="M0 0 C0 3.90838866 -1.50567876 5.11594107 -4 8 C-4.66 7.67 -5.32 7.34 -6 7 C-4.02 4.69 -2.04 2.38 0 0 Z " fill="#FB2B3F" transform="translate(298,272)"/>
<path d="M0 0 C0.82638376 2.89234315 1 4.88742431 1 8 C0.01 7.67 -0.98 7.34 -2 7 C-2.6875 4.9375 -2.6875 4.9375 -3 3 C-2.34 3 -1.68 3 -1 3 C-0.67 2.01 -0.34 1.02 0 0 Z " fill="#C7C7C7" transform="translate(447,150)"/>
<path d="M0 0 C4.875 1.75 4.875 1.75 6 4 C4.35 4.33 2.7 4.66 1 5 C0.67 3.35 0.34 1.7 0 0 Z " fill="#ADADAD" transform="translate(438,115)"/>
<path d="M0 0 C0.99 0.66 1.98 1.32 3 2 C0.69 2.66 -1.62 3.32 -4 4 C-4 3.34 -4 2.68 -4 2 C-2.68 1.34 -1.36 0.68 0 0 Z " fill="#949494" transform="translate(130,67)"/>
<path d="M0 0 C2.97 0.495 2.97 0.495 6 1 C6 1.33 6 1.66 6 2 C4.02 2 2.04 2 0 2 C0 1.34 0 0.68 0 0 Z " fill="#4B2F2F" transform="translate(138,442)"/>
<path d="M0 0 C0 3 0 3 0 3 Z " fill="#5F5F5F" transform="translate(65,356)"/>
<path d="M0 0 C0.66 0 1.32 0 2 0 C1.67 0.99 1.34 1.98 1 3 C0.67 2.01 0.34 1.02 0 0 Z " fill="#FFFFFF" transform="translate(63,157)"/>
<path d="M0 0 C0.66 0 1.32 0 2 0 C1.67 0.66 1.34 1.32 1 2 C0.67 1.34 0.34 0.68 0 0 Z " fill="#AAAAAA" transform="translate(445,166)"/>
<path d="M0 0 C3 1 3 1 3 1 Z " fill="#AAAAAA" transform="translate(378,67)"/>
<path d="M0 0 C2 1 2 1 2 1 Z " fill="#FF0000" transform="translate(370,443)"/>
<path d="" fill="#7F7F7F" transform="translate(0,0)"/>
<path d="" fill="#FFFFFF" transform="translate(0,0)"/>
<path d="M0 0 C2 1 2 1 2 1 Z " fill="#FF0000" transform="translate(134,67)"/>
<path d="" fill="#7F7F7F" transform="translate(0,0)"/>
<path d="" fill="#000000" transform="translate(0,0)"/>
<path d="" fill="#7F7F7F" transform="translate(0,0)"/>
<path d="" fill="#000000" transform="translate(0,0)"/>
<path d="" fill="#000000" transform="translate(0,0)"/>
<path d="" fill="#FFFFFF" transform="translate(0,0)"/>
<path d="" fill="#FFFFFF" transform="translate(0,0)"/>
<path d="" fill="#7F7F7F" transform="translate(0,0)"/>
<path d="" fill="#000000" transform="translate(0,0)"/>
<path d="" fill="#000000" transform="translate(0,0)"/>
<path d="" fill="#FFFFFF" transform="translate(0,0)"/>
<path d="" fill="#000000" transform="translate(0,0)"/>
<path d="" fill="#000000" transform="translate(0,0)"/>
<path d="" fill="#FFFFFF" transform="translate(0,0)"/>
<path d="" fill="#000000" transform="translate(0,0)"/>
<path d="" fill="#000000" transform="translate(0,0)"/>
<path d="" fill="#000000" transform="translate(0,0)"/>
<path d="" fill="#000000" transform="translate(0,0)"/>
<path d="" fill="#000000" transform="translate(0,0)"/>
<path d="" fill="#000000" transform="translate(0,0)"/>
<path d="" fill="#FFFFFF" transform="translate(0,0)"/>
<path d="" fill="#FFFFFF" transform="translate(0,0)"/>
<path d="" fill="#000000" transform="translate(0,0)"/>
<path d="" fill="#000000" transform="translate(0,0)"/>
<path d="" fill="#FFFFFF" transform="translate(0,0)"/>
<path d="" fill="#000000" transform="translate(0,0)"/>
<path d="" fill="#FFFFFF" transform="translate(0,0)"/>
<path d="" fill="#000000" transform="translate(0,0)"/>
<path d="" fill="#FFFFFF" transform="translate(0,0)"/>
</svg>
